<?xml version="1.0" encoding="utf-8"?>
<!-- Generator: Adobe Illustrator 19.1.0, SVG Export Plug-In . SVG Version: 6.00 Build 0)  -->
<!DOCTYPE svg PUBLIC "-//W3C//DTD SVG 1.1//EN" "http://www.w3.org/Graphics/SVG/1.1/DTD/svg11.dtd">
<svg version="1.1" id="Layer_1" xmlns="http://www.w3.org/2000/svg" xmlns:xlink="http://www.w3.org/1999/xlink" x="0px" y="0px"
	 viewBox="0 0 16 16" enable-background="new 0 0 16 16" xml:space="preserve">
<path fill="#FFFFFF" d="M10.8,9.2c0.7,0.7,1.8,0.7,2.5,0l1.4,1.4c-0.7,0.7-1.7,1.1-2.6,1.1c-1,0-1.9-0.4-2.6-1.1
	C8.7,9.9,8.3,9,8.3,8s0.4-1.9,1.1-2.6c1.5-1.4,3.8-1.4,5.3,0l-1.4,1.4c-0.7-0.7-1.8-0.7-2.5,0c-0.3,0.3-0.5,0.7-0.5,1.2
	C10.3,8.4,10.5,8.9,10.8,9.2 M3.5,9.2c0.7,0.7,1.8,0.7,2.5,0l1.4,1.4c-0.7,0.7-1.7,1.1-2.6,1.1s-1.9-0.4-2.6-1.1C1.4,9.9,1,9,1,8
	s0.4-1.9,1.1-2.6C3.6,4,5.9,4,7.4,5.4L6,6.8c-0.7-0.7-1.8-0.7-2.5,0C3.2,7.1,3,7.6,3,8C3,8.4,3.2,8.9,3.5,9.2 M0,13h16V3H0V13z"/>
</svg>
