<?xml version="1.0" encoding="utf-8"?>
<!-- Generator: Adobe Illustrator 21.0.2, SVG Export Plug-In . SVG Version: 6.00 Build 0)  -->
<svg version="1.1" id="Layer_1" xmlns="http://www.w3.org/2000/svg" xmlns:xlink="http://www.w3.org/1999/xlink" x="0px" y="0px"
	 viewBox="0 0 24 24" style="enable-background:new 0 0 24 24;" xml:space="preserve">
<style type="text/css">
	.st0{fill:#FFFFFF;}
</style>
<g>
	<path class="st0" d="M7.2,0.4c-0.6,0-1,0.4-1,1v3.4L1.9,0.5c-0.4-0.4-1-0.4-1.4,0s-0.4,1,0,1.4l4.3,4.3H1.4c-0.6,0-1,0.4-1,1
		s0.4,1,1,1h5.8c0.6,0,1-0.4,1-1V1.4C8.2,0.8,7.8,0.4,7.2,0.4z"/>
	<path class="st0" d="M16.8,8.2h5.8c0.6,0,1-0.4,1-1s-0.4-1-1-1h-3.4l4.3-4.3c0.4-0.4,0.4-1,0-1.4s-1-0.4-1.4,0l-4.3,4.3V1.4
		c0-0.6-0.4-1-1-1s-1,0.4-1,1v5.8C15.8,7.8,16.2,8.2,16.8,8.2z"/>
	<path class="st0" d="M19.2,17.8h3.4c0.6,0,1-0.4,1-1s-0.4-1-1-1h-5.8c-0.6,0-1,0.4-1,1v5.8c0,0.6,0.4,1,1,1s1-0.4,1-1v-3.4l4.3,4.3
		c0.2,0.2,0.5,0.3,0.7,0.3s0.5-0.1,0.7-0.3c0.4-0.4,0.4-1,0-1.4L19.2,17.8z"/>
	<path class="st0" d="M7.2,15.8H1.4c-0.6,0-1,0.4-1,1s0.4,1,1,1h3.4l-4.3,4.3c-0.4,0.4-0.4,1,0,1.4c0.2,0.2,0.5,0.3,0.7,0.3
		s0.5-0.1,0.7-0.3l4.3-4.3v3.4c0,0.6,0.4,1,1,1s1-0.4,1-1v-5.8C8.2,16.2,7.8,15.8,7.2,15.8z"/>
</g>
</svg>
