<?xml version="1.0" encoding="utf-8"?>
<!-- Generator: Adobe Illustrator 21.0.2, SVG Export Plug-In . SVG Version: 6.00 Build 0)  -->
<svg version="1.1" id="Layer_1" xmlns="http://www.w3.org/2000/svg" xmlns:xlink="http://www.w3.org/1999/xlink" x="0px" y="0px"
	 viewBox="0 0 24 24" style="enable-background:new 0 0 24 24;" xml:space="preserve">
<style type="text/css">
	.st0{fill:#FFFFFF;}
</style>
<g>
	<polygon class="st0" points="7.3,15.3 2,20.6 2,16 0,16 0,24 8,24 8,22 3.4,22 8.7,16.7 	"/>
	<polygon class="st0" points="8,2 8,0 0,0 0,8 2,8 2,3.4 7.3,8.7 8.7,7.3 3.4,2 	"/>
	<polygon class="st0" points="16,0 16,2 20.6,2 15.3,7.3 16.7,8.7 22,3.4 22,8 24,8 24,0 	"/>
	<polygon class="st0" points="22,20.6 16.7,15.3 15.3,16.7 20.6,22 16,22 16,24 24,24 24,16 22,16 	"/>
</g>
</svg>
