<?xml version="1.0" encoding="utf-8"?>
<!-- Generator: Adobe Illustrator 19.0.0, SVG Export Plug-In . SVG Version: 6.00 Build 0)  -->
<!DOCTYPE svg PUBLIC "-//W3C//DTD SVG 1.1//EN" "http://www.w3.org/Graphics/SVG/1.1/DTD/svg11.dtd">
<svg version="1.1" id="Layer_1" xmlns="http://www.w3.org/2000/svg" xmlns:xlink="http://www.w3.org/1999/xlink" x="0px" y="0px"
	 viewBox="-447 249 64 64" style="enable-background:new -447 249 64 64;" xml:space="preserve">
<style type="text/css">
	.st0{opacity:0.85;fill:#FFFFFF;}
	.st1{fill:#FB6400;}
</style>
<circle class="st0" cx="-414.9" cy="280.9" r="30.2"/>
<path class="st1" d="M-415,250c-17.1,0-31,13.9-31,31s13.9,31,31,31s31-13.9,31-31S-397.9,250-415,250z M-415,310c-16,0-29-13-29-29
	s13-29,29-29s29,13,29,29S-399,310-415,310z"/>
<path class="st1" d="M-419,268h-8c-0.6,0-1,0.4-1,1v24c0,0.6,0.4,1,1,1h8c0.6,0,1-0.4,1-1v-24C-418,268.4-418.4,268-419,268z"/>
<path class="st1" d="M-403,268h-8c-0.6,0-1,0.4-1,1v24c0,0.6,0.4,1,1,1h8c0.6,0,1-0.4,1-1v-24C-402,268.4-402.4,268-403,268z"/>
</svg>
