<?xml version="1.0" encoding="utf-8"?>
<!-- Generator: Adobe Illustrator 19.1.0, SVG Export Plug-In . SVG Version: 6.00 Build 0)  -->
<!DOCTYPE svg PUBLIC "-//W3C//DTD SVG 1.1//EN" "http://www.w3.org/Graphics/SVG/1.1/DTD/svg11.dtd">
<svg version="1.1" id="Layer_1" xmlns="http://www.w3.org/2000/svg" xmlns:xlink="http://www.w3.org/1999/xlink" x="0px" y="0px"
	 viewBox="0 0 16 16" enable-background="new 0 0 16 16" xml:space="preserve">
<g transform="translate(400, 448)">
	<path fill="#FFFFFF" d="M-386.7-442.8l1.1-2.1l-1.4-1.4l-2.1,1.1c-0.3-0.2-0.7-0.3-1.1-0.4l-0.8-2.4h-2l-0.8,2.3
		c-0.3,0.1-0.7,0.2-1,0.4l-2.1-1.1l-1.5,1.5l1.1,2.1c-0.2,0.3-0.3,0.7-0.4,1l-2.3,0.8v2l2.3,0.8c0.1,0.4,0.3,0.7,0.4,1.1l-1.1,2.1
		l1.4,1.4l2.1-1.1c0.3,0.2,0.7,0.3,1.1,0.4l0.8,2.3h2l0.8-2.3c0.4-0.1,0.7-0.3,1.1-0.4l2.1,1.1l1.4-1.4l-1.1-2.1
		c0.2-0.3,0.3-0.7,0.4-1.1l2.3-0.8v-2l-2.3-0.8C-386.4-442.1-386.5-442.5-386.7-442.8z M-392-437c-1.7,0-3-1.3-3-3s1.3-3,3-3
		s3,1.3,3,3S-390.3-437-392-437z"/>
</g>
</svg>
